<svg width="38" height="38" viewBox="0 0 38 38" fill="none" xmlns="http://www.w3.org/2000/svg" xmlns:xlink="http://www.w3.org/1999/xlink">
<path d="M4.998,8.435C5.877,7.556 7.069,7.063 8.313,7.063L27.063,7.063C28.306,7.063 29.498,7.556 30.377,8.435C31.256,9.315 31.75,10.507 31.75,11.75L31.75,12.018C32.403,12.249 33.003,12.624 33.502,13.123C34.381,14.002 34.875,15.194 34.875,16.438L34.875,19.563C34.875,20.806 34.381,21.998 33.502,22.877C33.003,23.376 32.403,23.751 31.75,23.982L31.75,24.25C31.75,25.493 31.256,26.685 30.377,27.565C29.498,28.444 28.306,28.938 27.063,28.938L8.313,28.938C7.069,28.938 5.877,28.444 4.998,27.565C4.119,26.685 3.625,25.493 3.625,24.25L3.625,11.75C3.625,10.507 4.119,9.315 4.998,8.435ZM8.313,10.188C7.898,10.188 7.501,10.352 7.208,10.645C6.915,10.938 6.75,11.336 6.75,11.75L6.75,24.25C6.75,24.664 6.915,25.062 7.208,25.355C7.501,25.648 7.898,25.813 8.313,25.813L27.063,25.813C27.477,25.813 27.874,25.648 28.167,25.355C28.46,25.062 28.625,24.664 28.625,24.25L28.625,22.688C28.625,21.825 29.325,21.125 30.187,21.125C30.602,21.125 30.999,20.96 31.292,20.667C31.585,20.374 31.75,19.977 31.75,19.563L31.75,16.438C31.75,16.023 31.585,15.626 31.292,15.333C30.999,15.04 30.602,14.875 30.187,14.875C29.325,14.875 28.625,14.175 28.625,13.313L28.625,11.75C28.625,11.336 28.46,10.938 28.167,10.645C27.874,10.352 27.477,10.188 27.063,10.188L8.313,10.188Z" clip-rule="evenodd" fill-rule="evenodd" fill="#000000"/>
<path d="M9,13C9,12.448 9.448,12 10,12L23,12C23.552,12 24,12.448 24,13L24,23C24,23.552 23.552,24 23,24L10,24C9.448,24 9,23.552 9,23L9,13Z" fill="#000000"/>
</svg>
