<svg width="25" height="25" viewBox="0 0 25 25" fill="none" xmlns="http://www.w3.org/2000/svg">
<g id="Bell">
<path id="Rectangle 1" d="M7.31308 8.66613C7.62742 5.83704 10.0187 3.69672 12.8652 3.69672V3.69672C15.7117 3.69672 18.103 5.83704 18.4174 8.66614L18.6692 10.9324C18.6724 10.9612 18.674 10.9757 18.6756 10.99C18.8046 12.1137 19.1704 13.1972 19.7488 14.1692C19.7561 14.1816 19.7636 14.194 19.7786 14.219L20.3566 15.1823C20.8812 16.0566 21.1434 16.4937 21.0868 16.8526C21.0491 17.0913 20.9263 17.3084 20.7409 17.4635C20.4623 17.6967 19.9526 17.6967 18.933 17.6967H6.79746C5.77792 17.6967 5.26814 17.6967 4.98957 17.4635C4.80421 17.3084 4.68132 17.0913 4.64364 16.8526C4.58703 16.4937 4.8493 16.0566 5.37385 15.1823L5.95189 14.219C5.96684 14.194 5.97432 14.1816 5.98168 14.1692C6.56012 13.1972 6.92587 12.1137 7.05482 10.99C7.05646 10.9757 7.05807 10.9612 7.06127 10.9324L7.31308 8.66613Z" stroke="#33363F" stroke-width="2"/>
<path id="Ellipse 45" d="M8.86523 17.6967C8.86523 18.222 8.9687 18.7421 9.16972 19.2275C9.37074 19.7128 9.66537 20.1537 10.0368 20.5251C10.4082 20.8966 10.8492 21.1912 11.3345 21.3922C11.8198 21.5933 12.3399 21.6967 12.8652 21.6967C13.3905 21.6967 13.9107 21.5933 14.396 21.3922C14.8813 21.1912 15.3222 20.8966 15.6937 20.5251C16.0651 20.1537 16.3597 19.7128 16.5608 19.2274C16.7618 18.7421 16.8652 18.222 16.8652 17.6967" stroke="#33363F" stroke-width="2" stroke-linecap="round"/>
</g>
</svg>
