<svg width="48" height="48" viewBox="0 0 48 48" fill="none" xmlns="http://www.w3.org/2000/svg" xmlns:xlink="http://www.w3.org/1999/xlink">
<path d="M12.392,20.471L10.404,20.25L12.392,20.471ZM12.379,20.587L10.392,20.359L12.379,20.587ZM10.173,27.044L8.458,26.015L10.173,27.044ZM10.233,26.945L11.952,27.968L10.233,26.945ZM35.608,20.471L37.596,20.25L35.608,20.471ZM35.621,20.587L33.634,20.815L35.621,20.587ZM37.827,27.044L39.542,26.015L37.827,27.044ZM37.767,26.945L39.486,25.922L37.767,26.945ZM8.249,33.534L6.965,35.067L8.249,33.534ZM7.557,32.312L5.581,32.623L7.557,32.312ZM39.751,33.534L38.468,32L39.751,33.534ZM40.443,32.312L42.419,32.623L40.443,32.312ZM36.136,32L11.864,32L11.864,36L36.136,36L36.136,32ZM33.117,16.16L33.62,20.692L37.596,20.25L37.092,15.718L33.117,16.16ZM14.38,20.692L14.883,16.16L10.908,15.718L10.404,20.25L14.38,20.692ZM10.732,30L11.888,28.073L8.458,26.015L7.302,27.942L10.732,30ZM36.112,28.073L37.268,30L40.698,27.942L39.542,26.015L36.112,28.073ZM10.404,20.25C10.398,20.31 10.395,20.334 10.392,20.359L14.366,20.815C14.37,20.782 14.374,20.749 14.38,20.692L10.404,20.25ZM11.888,28.073C11.917,28.025 11.935,27.996 11.952,27.968L8.514,25.922C8.502,25.943 8.489,25.964 8.458,26.015L11.888,28.073ZM10.392,20.359C10.167,22.325 9.526,24.221 8.514,25.922L11.952,27.968C13.253,25.781 14.076,23.343 14.366,20.815L10.392,20.359ZM33.62,20.692C33.626,20.749 33.63,20.782 33.634,20.815L37.608,20.359C37.605,20.334 37.602,20.31 37.596,20.25L33.62,20.692ZM39.542,26.015C39.511,25.964 39.498,25.943 39.486,25.922L36.048,27.968C36.065,27.996 36.082,28.025 36.112,28.073L39.542,26.015ZM33.634,20.815C33.924,23.343 34.747,25.781 36.048,27.968L39.486,25.922C38.474,24.221 37.833,22.325 37.608,20.359L33.634,20.815ZM11.864,32C10.801,32 10.157,31.998 9.701,31.952C9.234,31.905 9.339,31.838 9.532,32L6.965,35.067C7.715,35.695 8.609,35.862 9.301,35.932C10.004,36.002 10.889,36 11.864,36L11.864,32ZM7.302,27.942C6.8,28.779 6.343,29.536 6.042,30.176C5.746,30.805 5.429,31.657 5.581,32.623L9.532,32C9.572,32.249 9.461,32.305 9.661,31.88C9.856,31.466 10.185,30.912 10.732,30L7.302,27.942ZM9.532,32L9.532,32L5.581,32.623C5.732,33.579 6.224,34.447 6.965,35.067L9.532,32ZM36.136,36C37.111,36 37.996,36.002 38.699,35.932C39.391,35.862 40.285,35.695 41.035,35.067L38.468,32C38.661,31.838 38.766,31.905 38.299,31.952C37.843,31.998 37.199,32 36.136,32L36.136,36ZM37.268,30C37.815,30.912 38.144,31.466 38.339,31.88C38.539,32.305 38.428,32.249 38.468,32L42.419,32.623C42.571,31.657 42.254,30.805 41.958,30.176C41.657,29.536 41.2,28.779 40.698,27.942L37.268,30ZM41.035,35.067C41.776,34.447 42.268,33.579 42.419,32.623L38.468,32L38.468,32L41.035,35.067ZM24,8C28.674,8 32.6,11.514 33.117,16.16L37.092,15.718C36.351,9.047 30.712,4 24,4L24,8ZM24,4C17.288,4 11.649,9.047 10.908,15.718L14.883,16.16C15.4,11.514 19.326,8 24,8L24,4Z" fill="#33363F"/>
<path d="M30,34C30,35.105 30.895,36 32,36C33.105,36 34,35.105 34,34L30,34ZM31.391,30.939L29.543,31.704L31.391,30.939ZM29.657,28.343L28.243,29.757L29.657,28.343ZM27.061,26.609L26.296,28.457L27.061,26.609ZM24,26L24,28L24,26ZM20.939,26.609L21.704,28.457L20.939,26.609ZM18.343,28.343L19.757,29.757L18.343,28.343ZM16.609,30.939L18.457,31.704L16.609,30.939ZM14,34C14,35.105 14.895,36 16,36C17.105,36 18,35.105 18,34L14,34ZM34,34C34,32.687 33.741,31.386 33.239,30.173L29.543,31.704C29.845,32.432 30,33.212 30,34L34,34ZM33.239,30.173C32.736,28.96 32,27.858 31.071,26.929L28.243,29.757C28.8,30.315 29.242,30.976 29.543,31.704L33.239,30.173ZM31.071,26.929C30.142,26 29.04,25.264 27.827,24.761L26.296,28.457C27.024,28.758 27.685,29.2 28.243,29.757L31.071,26.929ZM27.827,24.761C26.614,24.259 25.313,24 24,24L24,28C24.788,28 25.568,28.155 26.296,28.457L27.827,24.761ZM24,24C22.687,24 21.386,24.259 20.173,24.761L21.704,28.457C22.432,28.155 23.212,28 24,28L24,24ZM20.173,24.761C18.96,25.264 17.858,26 16.929,26.929L19.757,29.757C20.315,29.2 20.976,28.758 21.704,28.457L20.173,24.761ZM16.929,26.929C16,27.858 15.264,28.96 14.761,30.173L18.457,31.704C18.758,30.976 19.2,30.315 19.757,29.757L16.929,26.929ZM14.761,30.173C14.259,31.386 14,32.687 14,34L18,34C18,33.212 18.155,32.432 18.457,31.704L14.761,30.173Z" transform="rotate(360 24 34)" fill="#33363F"/>
</svg>
