<svg width="48" height="48" viewBox="0 0 48 48" fill="none" xmlns="http://www.w3.org/2000/svg" xmlns:xlink="http://www.w3.org/1999/xlink">
<path d="M12.123,19.865L10.135,19.644L12.123,19.865ZM12.11,19.98L10.123,19.752L12.11,19.98ZM9.904,26.438L8.189,25.409L9.904,26.438ZM9.963,26.339L11.682,27.361L9.963,26.339ZM35.338,19.865L37.326,19.644L35.338,19.865ZM35.351,19.98L33.364,20.208L35.351,19.98ZM37.557,26.438L39.272,25.409L37.557,26.438ZM37.498,26.339L39.216,25.316L37.498,26.339ZM7.979,32.927L6.695,34.461L7.979,32.927ZM7.287,31.705L5.312,32.017L7.287,31.705ZM39.482,32.927L38.198,31.394L39.482,32.927ZM40.174,31.705L42.149,32.017L40.174,31.705ZM35.866,31.394L11.595,31.394L11.595,35.394L35.866,35.394L35.866,31.394ZM32.847,15.553L33.351,20.086L37.326,19.644L36.822,15.112L32.847,15.553ZM14.11,20.086L14.614,15.553L10.638,15.112L10.135,19.644L14.11,20.086ZM10.463,29.394L11.619,27.467L8.189,25.409L7.033,27.336L10.463,29.394ZM35.842,27.467L36.998,29.394L40.428,27.336L39.272,25.409L35.842,27.467ZM10.135,19.644C10.128,19.703 10.125,19.728 10.123,19.752L14.097,20.208C14.1,20.175 14.104,20.142 14.11,20.086L10.135,19.644ZM11.619,27.467C11.648,27.418 11.665,27.39 11.682,27.361L8.245,25.316C8.232,25.337 8.219,25.358 8.189,25.409L11.619,27.467ZM10.123,19.752C9.897,21.719 9.257,23.615 8.245,25.316L11.682,27.361C12.984,25.174 13.806,22.736 14.097,20.208L10.123,19.752ZM33.351,20.086C33.357,20.142 33.36,20.175 33.364,20.208L37.338,19.752C37.335,19.728 37.333,19.703 37.326,19.644L33.351,20.086ZM39.272,25.409C39.241,25.358 39.229,25.337 39.216,25.316L35.779,27.361C35.796,27.39 35.813,27.418 35.842,27.467L39.272,25.409ZM33.364,20.208C33.654,22.736 34.477,25.174 35.779,27.361L39.216,25.316C38.204,23.615 37.564,21.719 37.338,19.752L33.364,20.208ZM11.595,31.394C10.532,31.394 9.887,31.391 9.432,31.345C8.964,31.298 9.07,31.232 9.263,31.394L6.695,34.461C7.446,35.089 8.339,35.256 9.031,35.325C9.734,35.396 10.619,35.394 11.595,35.394L11.595,31.394ZM7.033,27.336C6.531,28.173 6.073,28.93 5.772,29.569C5.476,30.198 5.159,31.051 5.312,32.017L9.263,31.394C9.302,31.642 9.191,31.698 9.391,31.274C9.586,30.86 9.916,30.306 10.463,29.394L7.033,27.336ZM9.263,31.394L9.263,31.394L5.312,32.017C5.462,32.972 5.954,33.84 6.695,34.461L9.263,31.394ZM35.866,35.394C36.842,35.394 37.726,35.396 38.43,35.325C39.122,35.256 40.015,35.089 40.765,34.461L38.198,31.394C38.391,31.232 38.496,31.298 38.029,31.345C37.574,31.391 36.929,31.394 35.866,31.394L35.866,35.394ZM36.998,29.394C37.545,30.306 37.875,30.86 38.07,31.274C38.27,31.698 38.159,31.642 38.198,31.394L42.149,32.017C42.302,31.051 41.985,30.198 41.689,29.569C41.387,28.93 40.93,28.173 40.428,27.336L36.998,29.394ZM40.765,34.461C41.507,33.84 41.998,32.972 42.149,32.017L38.198,31.394L38.198,31.394L40.765,34.461ZM23.73,7.394C28.404,7.394 32.331,10.908 32.847,15.553L36.822,15.112C36.081,8.44 30.443,3.394 23.73,3.394L23.73,7.394ZM23.73,3.394C17.018,3.394 11.38,8.44 10.638,15.112L14.614,15.553C15.13,10.908 19.057,7.394 23.73,7.394L23.73,3.394Z" fill="#33363F"/>
<path d="M29.73,33.394C29.73,34.498 30.626,35.394 31.73,35.394C32.835,35.394 33.73,34.498 33.73,33.394L29.73,33.394ZM31.122,30.332L29.274,31.097L31.122,30.332ZM29.387,27.737L27.973,29.151L29.387,27.737ZM26.792,26.003L26.027,27.85L26.792,26.003ZM23.73,25.394L23.73,27.394L23.73,25.394ZM20.669,26.003L21.434,27.85L20.669,26.003ZM18.074,27.737L19.488,29.151L18.074,27.737ZM16.339,30.332L18.187,31.097L16.339,30.332ZM13.73,33.394C13.73,34.498 14.626,35.394 15.73,35.394C16.835,35.394 17.73,34.498 17.73,33.394L13.73,33.394ZM33.73,33.394C33.73,32.08 33.472,30.78 32.969,29.567L29.274,31.097C29.575,31.825 29.73,32.606 29.73,33.394L33.73,33.394ZM32.969,29.567C32.467,28.353 31.73,27.251 30.802,26.322L27.973,29.151C28.53,29.708 28.972,30.369 29.274,31.097L32.969,29.567ZM30.802,26.322C29.873,25.394 28.771,24.657 27.557,24.155L26.027,27.85C26.755,28.152 27.416,28.594 27.973,29.151L30.802,26.322ZM27.557,24.155C26.344,23.652 25.044,23.394 23.73,23.394L23.73,27.394C24.518,27.394 25.299,27.549 26.027,27.85L27.557,24.155ZM23.73,23.394C22.417,23.394 21.117,23.652 19.904,24.155L21.434,27.85C22.162,27.549 22.943,27.394 23.73,27.394L23.73,23.394ZM19.904,24.155C18.69,24.657 17.588,25.394 16.659,26.322L19.488,29.151C20.045,28.594 20.706,28.152 21.434,27.85L19.904,24.155ZM16.659,26.322C15.731,27.251 14.994,28.353 14.492,29.567L18.187,31.097C18.489,30.369 18.931,29.708 19.488,29.151L16.659,26.322ZM14.492,29.567C13.989,30.78 13.73,32.08 13.73,33.394L17.73,33.394C17.73,32.606 17.886,31.825 18.187,31.097L14.492,29.567Z" transform="rotate(360 23.73 33.394)" fill="#33363F"/>
</svg>
