<svg width="48" height="48" viewBox="0 0 48 48" fill="none" xmlns="http://www.w3.org/2000/svg" xmlns:xlink="http://www.w3.org/1999/xlink">
<path d="M27.588,6.59C26.459,6.207 25.251,6 23.999,6C18.306,6 13.524,10.281 12.895,15.939L12.391,20.471L12.379,20.587C12.121,22.834 11.389,25.001 10.232,26.945L10.173,27.044L9.017,28.971C7.967,30.72 7.443,31.594 7.556,32.312C7.632,32.789 7.877,33.223 8.248,33.534C8.805,34 9.825,34 11.864,34L36.135,34C38.174,34 39.194,34 39.751,33.534C40.121,33.223 40.367,32.789 40.443,32.312C40.556,31.594 40.031,30.72 38.982,28.971L37.826,27.044L37.766,26.945C36.854,25.412 36.206,23.74 35.847,21.999C30.394,21.917 25.999,17.472 25.999,12C25.999,10.007 26.583,8.149 27.588,6.59ZM32.547,9.978C32.199,10.571 31.999,11.262 31.999,12C31.999,13.9 33.323,15.49 35.099,15.898C34.84,13.643 33.921,11.608 32.547,9.978Z" clip-rule="evenodd" fill-rule="evenodd" fill="#222222"/>
<path d="M30,34C30,34.788 29.845,35.568 29.543,36.296C29.242,37.024 28.8,37.685 28.243,38.243C27.685,38.8 27.024,39.242 26.296,39.543C25.568,39.845 24.788,40 24,40C23.212,40 22.432,39.845 21.704,39.543C20.976,39.242 20.315,38.8 19.757,38.243C19.2,37.685 18.758,37.024 18.457,36.296C18.155,35.568 18,34.788 18,34L24,34L30,34Z" transform="rotate(360 24 34)" fill="#222222"/>
<circle cx="36" cy="12" r="4" fill="#222222" stroke="#222222" stroke-width="1" stroke-miterlimit="3.999327"/>
</svg>
