<svg width="48" height="48" viewBox="0 0 48 48" fill="none" xmlns="http://www.w3.org/2000/svg" xmlns:xlink="http://www.w3.org/1999/xlink">
<path d="M13.005,13.95C13.57,8.302 18.323,4 24,4L24,4C29.677,4 34.43,8.302 34.995,13.95L35.568,19.683C35.603,20.031 35.621,20.206 35.641,20.377C35.93,22.743 36.743,25.015 38.023,27.027C38.115,27.173 38.212,27.319 38.407,27.61L40.129,30.194C41.702,32.553 42.488,33.732 42.143,34.682C42.078,34.862 41.987,35.032 41.874,35.186C41.274,36 39.857,36 37.022,36L10.978,36C8.143,36 6.726,36 6.126,35.186C6.013,35.032 5.922,34.862 5.857,34.682C5.512,33.732 6.298,32.553 7.871,30.194L9.593,27.61C9.788,27.319 9.885,27.173 9.977,27.027C11.257,25.015 12.07,22.743 12.359,20.377C12.379,20.206 12.397,20.031 12.432,19.683L13.005,13.95Z" fill="#222222"/>
<path d="M26.499,42.204C27.307,42.957 28.573,42.913 29.326,42.106C30.08,41.298 30.036,40.032 29.228,39.279L26.499,42.204ZM26.435,40.207L26.058,42.171L26.435,40.207ZM24,40L24,42L24,40ZM18.772,39.279C17.964,40.032 17.92,41.298 18.674,42.106C19.427,42.913 20.693,42.957 21.501,42.204L18.772,39.279ZM29.228,39.279C28.834,38.911 28.368,38.699 28.027,38.571C27.651,38.431 27.236,38.324 26.812,38.242L26.058,42.171C26.333,42.224 26.518,42.278 26.625,42.318C26.677,42.337 26.691,42.346 26.677,42.339C26.668,42.334 26.596,42.294 26.499,42.204L29.228,39.279ZM26.812,38.242C25.964,38.08 24.978,38 24,38L24,42C24.783,42 25.509,42.065 26.058,42.171L26.812,38.242ZM24,38C23.022,38 22.036,38.08 21.188,38.242L21.942,42.171C22.491,42.065 23.217,42 24,42L24,38ZM21.188,38.242C20.764,38.324 20.349,38.431 19.973,38.571C19.632,38.699 19.166,38.911 18.772,39.279L21.501,42.204C21.404,42.294 21.332,42.334 21.323,42.339C21.309,42.346 21.323,42.337 21.375,42.318C21.482,42.278 21.667,42.224 21.942,42.171L21.188,38.242Z" transform="rotate(360 24 41)" fill="#222222"/>
</svg>
