<svg width="36" height="14" viewBox="0 0 36 14" fill="none" xmlns="http://www.w3.org/2000/svg" xmlns:xlink="http://www.w3.org/1999/xlink">
<path d="M30.331,10.96C30.703,12.001 31.847,12.543 32.887,12.171C33.928,11.799 34.47,10.655 34.098,9.615L30.331,10.96ZM26.5,3.873L25.502,5.607L26.5,3.873ZM16.76,1.393L16.76,3.393L16.76,1.393ZM-0.578,9.615C-0.95,10.655 -0.408,11.799 0.632,12.171C1.672,12.543 2.817,12.001 3.188,10.96L-0.578,9.615ZM34.098,9.615C32.997,6.534 30.622,3.938 27.498,2.14L25.502,5.607C27.967,7.025 29.609,8.938 30.331,10.96L34.098,9.615ZM27.498,2.14C24.372,0.341 20.599,-0.607 16.76,-0.607L16.76,3.393C19.965,3.393 23.039,4.189 25.502,5.607L27.498,2.14ZM16.76,-0.607C12.921,-0.607 9.147,0.341 6.022,2.14L8.017,5.607C10.48,4.189 13.554,3.393 16.76,3.393L16.76,-0.607ZM6.022,2.14C2.898,3.938 0.522,6.534 -0.578,9.615L3.188,10.96C3.911,8.938 5.553,7.025 8.017,5.607L6.022,2.14Z" fill="#33363F"/>
</svg>
