<svg width="36" height="14" viewBox="0 0 36 14" fill="none" xmlns="http://www.w3.org/2000/svg" xmlns:xlink="http://www.w3.org/1999/xlink">
<path d="M31.571,11.567C31.943,12.607 33.088,13.149 34.128,12.778C35.168,12.406 35.71,11.261 35.338,10.221L31.571,11.567ZM27.74,4.48L26.743,6.213L27.74,4.48ZM18,2L18,4L18,2ZM0.662,10.221C0.29,11.261 0.832,12.406 1.872,12.778C2.912,13.149 4.057,12.607 4.429,11.567L0.662,10.221ZM35.338,10.221C34.238,7.14 31.862,4.544 28.738,2.746L26.743,6.213C29.207,7.631 30.849,9.545 31.571,11.567L35.338,10.221ZM28.738,2.746C25.612,0.948 21.839,0 18,0L18,4C21.205,4 24.279,4.796 26.743,6.213L28.738,2.746ZM18,0C14.161,0 10.388,0.948 7.262,2.746L9.257,6.213C11.721,4.796 14.795,4 18,4L18,0ZM7.262,2.746C4.138,4.544 1.762,7.14 0.662,10.221L4.429,11.567C5.151,9.545 6.793,7.631 9.257,6.213L7.262,2.746Z" fill="#33363F"/>
</svg>
