<svg width="34" height="32" viewBox="0 0 34 32" fill="none" xmlns="http://www.w3.org/2000/svg" xmlns:xlink="http://www.w3.org/1999/xlink">
<path d="M6.606,20.993C7.69,22.85 9.254,24.347 11.119,25.312C12.983,26.277 15.071,26.669 17.14,26.444C19.21,26.218 21.175,25.384 22.809,24.038C24.443,22.692 25.679,20.889 26.373,18.839L30.205,18.839C29.502,21.68 28.034,24.251 25.975,26.246C23.917,28.241 21.354,29.577 18.591,30.095C15.828,30.613 12.981,30.292 10.387,29.169C7.794,28.046 5.563,26.169 3.959,23.761L-0.5,28.422L-0.5,16.922L10.5,16.922L6.606,20.993ZM25.396,9.016C24.312,7.159 22.746,5.661 20.881,4.697C19.016,3.732 16.928,3.34 14.858,3.565C12.789,3.791 10.822,4.626 9.188,5.972C7.553,7.318 6.317,9.121 5.623,11.172L1.792,11.172C2.495,8.33 3.963,5.758 6.022,3.762C8.081,1.766 10.644,0.429 13.408,-0.089C16.172,-0.608 19.02,-0.286 21.614,0.837C24.209,1.96 26.441,3.837 28.045,6.246L32.5,1.589L32.5,13.089L21.5,13.089L25.396,9.016Z" clip-rule="evenodd" fill-rule="evenodd" fill="#FFFFFF"/>
</svg>
