<svg width="48" height="48" viewBox="0 0 48 48" fill="none" xmlns="http://www.w3.org/2000/svg" xmlns:xlink="http://www.w3.org/1999/xlink">
<path d="M6,16L38.4,16C41.76,16 43.44,16 44.724,16.654C45.853,17.229 46.771,18.147 47.346,19.276C48,20.56 48,22.24 48,25.6L48,36.4C48,39.76 48,41.44 47.346,42.724C46.771,43.853 45.853,44.771 44.724,45.346C43.44,46 41.76,46 38.4,46L15.6,46C12.24,46 10.56,46 9.276,45.346C8.147,44.771 7.229,43.853 6.654,42.724C6,41.44 6,39.76 6,36.4L6,16Z" fill="#222222"/>
<path d="M6,17.2C6,14.2 6,12.7 6.764,11.649C7.011,11.309 7.309,11.011 7.649,10.764C8.7,10 10.2,10 13.2,10L19.486,10C21.121,10 21.939,10 22.674,10.304C23.409,10.609 23.987,11.187 25.143,12.343L30,17.2L6,17.2L6,17.2Z" fill="#222222"/>
</svg>
