<svg width="50" height="48" viewBox="0 0 50 48" fill="none" xmlns="http://www.w3.org/2000/svg" xmlns:xlink="http://www.w3.org/1999/xlink">
<path d="M6.244,15.394L38.644,15.394C42.005,15.394 43.685,15.394 44.968,16.048C46.097,16.623 47.015,17.541 47.59,18.67C48.244,19.953 48.244,21.633 48.244,24.994L48.244,35.794C48.244,39.154 48.244,40.834 47.59,42.118C47.015,43.247 46.097,44.164 44.968,44.74C43.685,45.394 42.005,45.394 38.644,45.394L15.844,45.394C12.484,45.394 10.804,45.394 9.52,44.74C8.391,44.164 7.473,43.247 6.898,42.118C6.244,40.834 6.244,39.154 6.244,35.794L6.244,15.394Z" fill="#222222"/>
<path d="M6.244,16.594C6.244,13.594 6.244,12.094 7.008,11.042C7.255,10.703 7.553,10.404 7.893,10.157C8.944,9.394 10.444,9.394 13.444,9.394L19.73,9.394C21.365,9.394 22.183,9.394 22.918,9.698C23.653,10.003 24.231,10.581 25.387,11.737L30.244,16.594L6.244,16.594L6.244,16.594Z" fill="#222222"/>
</svg>
