<svg width="25" height="25" viewBox="0 0 25 25" fill="none" xmlns="http://www.w3.org/2000/svg">
<g id="Folder">
<path id="Rectangle 4017" d="M4.12207 9.69672C4.12207 7.8111 4.12207 6.86829 4.70786 6.2825C5.29364 5.69672 6.23645 5.69672 8.12207 5.69672H9.56402C10.3941 5.69672 10.8092 5.69672 11.1812 5.85325C11.5532 6.00979 11.8434 6.30653 12.4238 6.90001L13.6328 8.13628C14.2132 8.72976 14.5034 9.0265 14.8754 9.18304C15.2475 9.33957 15.6625 9.33957 16.4926 9.33957H19.1221C21.0077 9.33957 21.9505 9.33957 22.5363 9.92536C23.1221 10.5111 23.1221 11.454 23.1221 13.3396V18.6967C23.1221 20.5823 23.1221 21.5251 22.5363 22.1109C21.9505 22.6967 21.0077 22.6967 19.1221 22.6967H8.12207C6.23645 22.6967 5.29364 22.6967 4.70786 22.1109C4.12207 21.5251 4.12207 20.5823 4.12207 18.6967V9.69672Z" stroke="#33363F" stroke-width="2"/>
</g>
</svg>
