<svg width="50" height="48" viewBox="0 0 50 48" fill="none" xmlns="http://www.w3.org/2000/svg" xmlns:xlink="http://www.w3.org/1999/xlink">
<path d="M22.533,44L20.533,44L20.533,48L22.533,48L22.533,44ZM40.667,15.2L40.667,13.2L36.667,13.2L36.667,15.2L40.667,15.2ZM22.533,48L24.667,48L24.667,44L22.533,44L22.533,48ZM40.667,32L40.667,15.2L36.667,15.2L36.667,32L40.667,32ZM24.667,48C33.503,48 40.667,40.837 40.667,32L36.667,32C36.667,38.627 31.294,44 24.667,44L24.667,48Z" fill="#CBE1FF"/>
<path d="M29.638,21.699L28.578,23.395L31.97,25.515L33.03,23.819L29.638,21.699ZM38.667,11.026L40.363,9.966C39.998,9.381 39.357,9.026 38.667,9.026C37.978,9.026 37.337,9.381 36.971,9.966L38.667,11.026ZM44.305,23.819L45.365,25.515L48.757,23.395L47.697,21.699L44.305,23.819ZM33.03,23.819L40.363,12.086L36.971,9.966L29.638,21.699L33.03,23.819ZM36.971,12.086L44.305,23.819L47.697,21.699L40.363,9.966L36.971,12.086Z" fill="#CBE1FF"/>
<path d="M9.333,30.8L7.333,30.8L7.333,34.8L9.333,34.8L9.333,30.8ZM27.467,2L27.467,0L23.467,0L23.467,2L27.467,2ZM9.333,34.8L11.467,34.8L11.467,30.8L9.333,30.8L9.333,34.8ZM27.467,18.8L27.467,2L23.467,2L23.467,18.8L27.467,18.8ZM11.467,34.8C20.303,34.8 27.467,27.637 27.467,18.8L23.467,18.8C23.467,25.427 18.094,30.8 11.467,30.8L11.467,34.8Z" transform="rotate(360 17.4 17.4)" fill="#CBE1FF"/>
<path d="M0.303,35.914L-0.757,37.61L2.635,39.73L3.695,38.034L0.303,35.914ZM9.333,25.241L11.029,24.181C10.663,23.596 10.022,23.241 9.333,23.241C8.643,23.241 8.002,23.596 7.637,24.181L9.333,25.241ZM14.97,38.034L16.03,39.73L19.422,37.61L18.362,35.914L14.97,38.034ZM3.695,38.034L11.029,26.301L7.637,24.181L0.303,35.914L3.695,38.034ZM7.637,26.301L14.97,38.034L18.362,35.914L11.029,24.181L7.637,26.301Z" transform="rotate(360 9.333 31.108)" fill="#CBE1FF"/>
</svg>
