<svg width="690" height="36" viewBox="0 0 690 36" fill="none" xmlns="http://www.w3.org/2000/svg" xmlns:xlink="http://www.w3.org/1999/xlink">
<rect  x="29.938" y="-0.1" width="8.005" height="42.692" transform="rotate(90 29.938 -0.1)" fill="#EFEFEF"/>
<rect  x="52.445" y="-0.1" width="8.005" height="42.692" transform="rotate(90 52.445 -0.1)" fill="#EFEFEF"/>
<rect  x="74.951" y="-0.1" width="8.005" height="42.692" transform="rotate(90 74.951 -0.1)" fill="#EFEFEF"/>
<rect  x="97.459" y="-0.1" width="8.005" height="42.692" transform="rotate(90 97.459 -0.1)" fill="#EFEFEF"/>
<rect  x="119.965" y="-0.1" width="8.005" height="42.692" transform="rotate(90 119.965 -0.1)" fill="#EFEFEF"/>
<rect  x="142.473" y="-0.1" width="8.005" height="42.692" transform="rotate(90 142.473 -0.1)" fill="#EFEFEF"/>
<rect  x="164.977" y="-0.1" width="8.005" height="42.692" transform="rotate(90 164.977 -0.1)" fill="#EFEFEF"/>
<rect  x="187.484" y="-0.1" width="8.005" height="42.692" transform="rotate(90 187.484 -0.1)" fill="#EFEFEF"/>
<rect  x="209.99" y="-0.1" width="8.005" height="42.692" transform="rotate(90 209.99 -0.1)" fill="#EFEFEF"/>
<rect  x="232.498" y="-0.1" width="8.005" height="42.692" transform="rotate(90 232.498 -0.1)" fill="#EFEFEF"/>
<rect  x="255.004" y="-0.1" width="8.005" height="42.692" transform="rotate(90 255.004 -0.1)" fill="#EFEFEF"/>
<rect  x="277.512" y="-0.1" width="8.005" height="42.692" transform="rotate(90 277.512 -0.1)" fill="#EFEFEF"/>
<rect  x="300.018" y="-0.1" width="8.005" height="42.692" transform="rotate(90 300.018 -0.1)" fill="#EFEFEF"/>
<rect  x="322.525" y="-0.1" width="8.005" height="42.692" transform="rotate(90 322.525 -0.1)" fill="#EFEFEF"/>
<rect  x="345.031" y="-0.1" width="8.005" height="42.692" transform="rotate(90 345.031 -0.1)" fill="#EFEFEF"/>
<rect  x="367.539" y="-0.1" width="8.005" height="42.692" transform="rotate(90 367.539 -0.1)" fill="#EFEFEF"/>
<rect  x="390.043" y="-0.1" width="8.005" height="42.692" transform="rotate(90 390.043 -0.1)" fill="#EFEFEF"/>
<rect  x="412.551" y="-0.1" width="8.005" height="42.692" transform="rotate(90 412.551 -0.1)" fill="#EFEFEF"/>
<rect  x="435.057" y="-0.1" width="8.005" height="42.692" transform="rotate(90 435.057 -0.1)" fill="#EFEFEF"/>
<rect  x="457.563" y="-0.1" width="8.005" height="42.692" transform="rotate(90 457.563 -0.1)" fill="#EFEFEF"/>
<rect  x="480.07" y="-0.1" width="8.005" height="42.692" transform="rotate(90 480.07 -0.1)" fill="#EFEFEF"/>
<rect  x="502.576" y="-0.1" width="8.005" height="42.692" transform="rotate(90 502.576 -0.1)" fill="#EFEFEF"/>
<rect  x="525.084" y="-0.1" width="8.005" height="42.692" transform="rotate(90 525.084 -0.1)" fill="#EFEFEF"/>
<rect  x="547.588" y="-0.1" width="8.005" height="42.692" transform="rotate(90 547.588 -0.1)" fill="#EFEFEF"/>
<rect  x="570.096" y="-0.1" width="8.005" height="42.692" transform="rotate(90 570.096 -0.1)" fill="#EFEFEF"/>
<rect  x="592.602" y="-0.1" width="8.005" height="42.692" transform="rotate(90 592.602 -0.1)" fill="#EFEFEF"/>
<rect  x="615.109" y="-0.1" width="8.005" height="42.692" transform="rotate(90 615.109 -0.1)" fill="#EFEFEF"/>
<rect  x="637.615" y="-0.1" width="8.005" height="42.692" transform="rotate(90 637.615 -0.1)" fill="#EFEFEF"/>
<rect  x="660.123" y="-0.1" width="8.005" height="42.692" transform="rotate(90 660.123 -0.1)" fill="#EFEFEF"/>
<rect  x="682.629" y="-0.1" width="8.005" height="42.692" transform="rotate(90 682.629 -0.1)" fill="#EFEFEF"/>
</svg>
