<svg width="42" height="44" viewBox="0 0 42 44" fill="none" xmlns="http://www.w3.org/2000/svg" xmlns:xlink="http://www.w3.org/1999/xlink">
<path d="M14.29,7.365L15.655,8.826L15.655,8.826L14.29,7.365ZM32.14,7.365L30.774,8.826L30.774,8.826L32.14,7.365ZM34.426,9.501L35.791,8.04L35.791,8.04L34.426,9.501ZM12.004,9.501L10.638,8.04L10.638,8.04L12.004,9.501ZM37.215,20.855L37.215,31.424L41.215,31.424L41.215,20.855L37.215,20.855ZM30.072,39.394L16.358,39.394L16.358,43.394L30.072,43.394L30.072,39.394ZM9.215,31.424L9.215,20.855L5.215,20.855L5.215,31.424L9.215,31.424ZM13.37,10.962L15.655,8.826L12.924,5.903L10.638,8.04L13.37,10.962ZM30.774,8.826L33.06,10.962L35.791,8.04L33.506,5.903L30.774,8.826ZM15.655,8.826C17.824,6.799 19.313,5.412 20.567,4.509C21.779,3.636 22.536,3.394 23.215,3.394L23.215,-0.606C21.357,-0.606 19.781,0.146 18.229,1.263C16.719,2.351 15.014,3.95 12.924,5.903L15.655,8.826ZM33.506,5.903C31.415,3.95 29.71,2.351 28.2,1.263C26.649,0.146 25.073,-0.606 23.215,-0.606L23.215,3.394C23.894,3.394 24.651,3.636 25.863,4.509C27.116,5.412 28.606,6.799 30.774,8.826L33.506,5.903ZM16.358,39.394C14.141,39.394 12.698,39.389 11.632,39.232C10.642,39.087 10.273,38.849 10.028,38.582L7.08,41.285C8.174,42.478 9.551,42.97 11.052,43.19C12.475,43.399 14.264,43.394 16.358,43.394L16.358,39.394ZM5.215,31.424C5.215,33.722 5.211,35.63 5.397,37.138C5.588,38.688 6.009,40.117 7.08,41.285L10.028,38.582C9.76,38.29 9.511,37.814 9.367,36.649C9.218,35.442 9.215,33.826 9.215,31.424L5.215,31.424ZM37.215,31.424C37.215,33.826 37.211,35.442 37.062,36.649C36.919,37.814 36.67,38.29 36.402,38.582L39.35,41.285C40.421,40.117 40.841,38.688 41.032,37.138C41.218,35.63 41.215,33.722 41.215,31.424L37.215,31.424ZM30.072,43.394C32.165,43.394 33.955,43.399 35.378,43.19C36.878,42.97 38.256,42.478 39.35,41.285L36.402,38.582C36.157,38.849 35.788,39.087 34.798,39.232C33.732,39.389 32.288,39.394 30.072,39.394L30.072,43.394ZM41.215,20.855C41.215,17.643 41.252,15.462 40.43,13.514L36.745,15.069C37.178,16.096 37.215,17.299 37.215,20.855L41.215,20.855ZM33.06,10.962C35.539,13.279 36.321,14.064 36.745,15.069L40.43,13.514C39.599,11.545 38.025,10.127 35.791,8.04L33.06,10.962ZM9.215,20.855C9.215,17.299 9.252,16.096 9.685,15.069L5.999,13.514C5.178,15.462 5.215,17.643 5.215,20.855L9.215,20.855ZM10.638,8.04C8.405,10.127 6.83,11.545 5.999,13.514L9.685,15.069C10.109,14.064 10.891,13.279 13.37,10.962L10.638,8.04Z" fill="#33363F"/>
<path d="M29.215,41.394C29.215,42.498 30.11,43.394 31.215,43.394C32.319,43.394 33.215,42.498 33.215,41.394L29.215,41.394ZM13.215,41.394C13.215,42.498 14.11,43.394 15.215,43.394C16.319,43.394 17.215,42.498 17.215,41.394L13.215,41.394ZM17.215,25.394L29.215,25.394L29.215,21.394L17.215,21.394L17.215,25.394ZM29.215,25.394L29.215,41.394L33.215,41.394L33.215,25.394L29.215,25.394ZM13.215,25.394L13.215,41.394L17.215,41.394L17.215,25.394L13.215,25.394ZM29.215,25.394L33.215,25.394C33.215,23.184 31.424,21.394 29.215,21.394L29.215,25.394ZM17.215,21.394C15.006,21.394 13.215,23.184 13.215,25.394L17.215,25.394L17.215,21.394Z" fill="#33363F"/>
</svg>
