<svg width="25" height="25" viewBox="0 0 25 25" fill="none" xmlns="http://www.w3.org/2000/svg">
<g id="Home_fill">
<path id="Subtract" fill-rule="evenodd" clip-rule="evenodd" d="M4.97991 8.67111C4.60742 9.48097 4.60742 10.4023 4.60742 12.245V17.9998C4.60742 20.5588 4.60742 21.8384 5.40242 22.6334C6.16334 23.3943 7.36816 23.4269 9.71398 23.4283V16.6427C9.71398 15.3409 10.7693 14.2856 12.0711 14.2856H16.1425C17.4444 14.2856 18.4997 15.3409 18.4997 16.6427V23.4283C20.8463 23.4269 22.0514 23.3944 22.8124 22.6334C23.6074 21.8384 23.6074 20.5588 23.6074 17.9998V12.245C23.6074 10.4023 23.6074 9.48097 23.2349 8.67111C22.8625 7.86124 22.1629 7.26165 20.7639 6.06245L19.4067 4.89919C16.8779 2.73165 15.6135 1.64789 14.1074 1.64789C12.6013 1.64789 11.3369 2.73165 8.80812 4.89919L7.45098 6.06245C6.05192 7.26165 5.35239 7.86124 4.97991 8.67111ZM16.4997 23.4284V16.6427C16.4997 16.4455 16.3398 16.2856 16.1425 16.2856H12.0711C11.8739 16.2856 11.714 16.4455 11.714 16.6427V23.4284H16.4997Z" fill="#222222"/>
</g>
</svg>
