<svg width="62" height="18" viewBox="0 0 62 18" fill="none" xmlns="http://www.w3.org/2000/svg" xmlns:xlink="http://www.w3.org/1999/xlink">
<path d="M6.92,-0.753L6.92,16.701L4.278,16.701L4.278,1.889L4.176,1.889L0,4.616L0,2.094L4.355,-0.753L6.92,-0.753Z" fill="#000000"/>
<path d="M11.642,16.701L11.642,14.792L17.548,8.673C18.179,8.008 18.699,7.426 19.108,6.926C19.523,6.42 19.832,5.94 20.037,5.486C20.241,5.031 20.344,4.548 20.344,4.037C20.344,3.457 20.207,2.957 19.935,2.537C19.662,2.111 19.29,1.784 18.818,1.557C18.347,1.324 17.815,1.207 17.224,1.207C16.599,1.207 16.054,1.335 15.588,1.591C15.122,1.846 14.764,2.207 14.514,2.673C14.264,3.139 14.139,3.684 14.139,4.309L11.625,4.309C11.625,3.247 11.869,2.318 12.358,1.523C12.847,0.727 13.517,0.111 14.369,-0.327C15.222,-0.77 16.19,-0.992 17.276,-0.992C18.372,-0.992 19.338,-0.773 20.173,-0.335C21.014,0.096 21.67,0.687 22.142,1.437C22.614,2.182 22.849,3.023 22.849,3.96C22.849,4.608 22.727,5.241 22.483,5.861C22.244,6.48 21.827,7.17 21.23,7.932C20.634,8.687 19.804,9.605 18.741,10.684L15.273,14.315L15.273,14.443L23.131,14.443L23.131,16.701L11.642,16.701Z" fill="#000000"/>
<path d="M28.074,14.537C27.608,14.537 27.207,14.372 26.872,14.042C26.537,13.707 26.369,13.304 26.369,12.832C26.369,12.366 26.537,11.969 26.872,11.639C27.207,11.304 27.608,11.136 28.074,11.136C28.54,11.136 28.94,11.304 29.276,11.639C29.611,11.969 29.778,12.366 29.778,12.832C29.778,13.145 29.699,13.432 29.54,13.693C29.386,13.949 29.182,14.153 28.926,14.307C28.67,14.46 28.386,14.537 28.074,14.537ZM28.074,5.792C27.608,5.792 27.207,5.628 26.872,5.298C26.537,4.963 26.369,4.559 26.369,4.088C26.369,3.622 26.537,3.224 26.872,2.895C27.207,2.559 27.608,2.392 28.074,2.392C28.54,2.392 28.94,2.559 29.276,2.895C29.611,3.224 29.778,3.622 29.778,4.088C29.778,4.4 29.699,4.687 29.54,4.949C29.386,5.204 29.182,5.409 28.926,5.562C28.67,5.716 28.386,5.792 28.074,5.792Z" fill="#000000"/>
<path d="M39.234,16.94C38.064,16.94 37.018,16.738 36.098,16.335C35.183,15.932 34.459,15.372 33.925,14.656C33.396,13.934 33.112,13.099 33.072,12.15L35.749,12.15C35.783,12.667 35.956,13.116 36.268,13.497C36.587,13.872 37.001,14.162 37.513,14.366C38.024,14.571 38.592,14.673 39.217,14.673C39.905,14.673 40.513,14.554 41.041,14.315C41.575,14.076 41.993,13.744 42.294,13.318C42.595,12.886 42.746,12.389 42.746,11.826C42.746,11.241 42.595,10.727 42.294,10.284C41.999,9.835 41.564,9.483 40.99,9.227C40.422,8.971 39.734,8.844 38.928,8.844L37.453,8.844L37.453,6.696L38.928,6.696C39.575,6.696 40.143,6.579 40.632,6.346C41.126,6.113 41.513,5.79 41.791,5.375C42.07,4.954 42.209,4.463 42.209,3.9C42.209,3.361 42.087,2.892 41.842,2.494C41.604,2.091 41.263,1.775 40.82,1.548C40.382,1.321 39.865,1.207 39.268,1.207C38.7,1.207 38.169,1.312 37.675,1.523C37.186,1.727 36.788,2.023 36.482,2.409C36.175,2.79 36.01,3.247 35.987,3.781L33.439,3.781C33.467,2.838 33.746,2.008 34.274,1.292C34.808,0.576 35.513,0.017 36.388,-0.387C37.263,-0.79 38.234,-0.992 39.303,-0.992C40.422,-0.992 41.388,-0.773 42.2,-0.335C43.018,0.096 43.649,0.673 44.092,1.395C44.541,2.116 44.763,2.906 44.757,3.764C44.763,4.741 44.49,5.571 43.939,6.253C43.393,6.934 42.666,7.392 41.757,7.625L41.757,7.761C42.916,7.937 43.814,8.398 44.45,9.142C45.092,9.886 45.411,10.809 45.405,11.912C45.411,12.872 45.143,13.733 44.604,14.494C44.07,15.255 43.339,15.855 42.413,16.292C41.487,16.724 40.428,16.94 39.234,16.94Z" fill="#000000"/>
<path d="M54.703,16.991C53.357,16.986 52.206,16.63 51.251,15.926C50.297,15.221 49.567,14.196 49.061,12.849C48.555,11.503 48.303,9.88 48.303,7.983C48.303,6.091 48.555,4.474 49.061,3.133C49.572,1.792 50.305,0.77 51.26,0.065C52.22,-0.639 53.368,-0.992 54.703,-0.992C56.038,-0.992 57.183,-0.637 58.138,0.074C59.092,0.778 59.822,1.801 60.328,3.142C60.839,4.477 61.095,6.091 61.095,7.983C61.095,9.886 60.842,11.511 60.337,12.858C59.831,14.199 59.101,15.224 58.146,15.934C57.192,16.639 56.044,16.991 54.703,16.991ZM54.703,14.716C55.885,14.716 56.808,14.139 57.473,12.986C58.143,11.832 58.479,10.165 58.479,7.983C58.479,6.534 58.325,5.309 58.018,4.309C57.717,3.304 57.283,2.542 56.714,2.025C56.152,1.503 55.482,1.241 54.703,1.241C53.527,1.241 52.604,1.821 51.933,2.98C51.263,4.139 50.925,5.807 50.919,7.983C50.919,9.437 51.07,10.667 51.371,11.673C51.678,12.673 52.112,13.432 52.675,13.949C53.237,14.46 53.913,14.716 54.703,14.716Z" fill="#000000"/>
</svg>
