<svg width="84" height="84" viewBox="0 0 84 84" fill="none" xmlns="http://www.w3.org/2000/svg" xmlns:xlink="http://www.w3.org/1999/xlink">
<path d="M52.854,50.035L51.387,48.675L52.854,50.035ZM58.684,45.611L58.676,43.611L58.684,45.611ZM48.922,54.279L47.455,52.919L48.922,54.279ZM45.756,56.653L45.847,54.655L45.756,56.653ZM30.762,40.609L30.648,42.606L30.762,40.609ZM11.935,60.893L25.879,46.527L23.008,43.741L9.065,58.107L11.935,60.893ZM34.938,47.045L41.234,55.221L44.403,52.78L38.107,44.604L34.938,47.045ZM50.389,55.638L54.321,51.394L51.387,48.675L47.455,52.919L50.389,55.638ZM63.092,51.359L72.044,60.871L74.956,58.129L66.005,48.618L63.092,51.359ZM54.321,51.394C55.725,49.879 56.64,48.897 57.408,48.268C58.131,47.675 58.47,47.612 58.692,47.611L58.676,43.611C57.16,43.617 55.948,44.293 54.873,45.174C53.842,46.019 52.711,47.246 51.387,48.675L54.321,51.394ZM66.005,48.618C64.669,47.199 63.529,45.981 62.491,45.144C61.409,44.271 60.192,43.605 58.676,43.611L58.692,47.611C58.913,47.61 59.253,47.671 59.98,48.258C60.753,48.881 61.676,49.855 63.092,51.359L66.005,48.618ZM41.234,55.221C41.867,56.042 42.468,56.832 43.045,57.394C43.661,57.996 44.502,58.598 45.665,58.651L45.847,54.655C46.082,54.666 46.125,54.811 45.839,54.533C45.514,54.215 45.111,53.699 44.403,52.78L41.234,55.221ZM47.455,52.919C46.667,53.77 46.219,54.247 45.866,54.534C45.556,54.785 45.611,54.644 45.847,54.655L45.665,58.651C46.828,58.704 47.72,58.181 48.388,57.638C49.013,57.13 49.684,56.398 50.389,55.638L47.455,52.919ZM25.879,46.527C27.419,44.94 28.428,43.907 29.268,43.255C30.063,42.638 30.421,42.593 30.648,42.606L30.876,38.613C29.277,38.521 27.974,39.196 26.815,40.095C25.7,40.961 24.464,42.241 23.008,43.741L25.879,46.527ZM38.107,44.604C36.832,42.949 35.75,41.535 34.741,40.549C33.692,39.523 32.475,38.704 30.876,38.613L30.648,42.606C30.874,42.619 31.225,42.705 31.944,43.408C32.704,44.151 33.589,45.293 34.938,47.045L38.107,44.604Z" fill="#FFFFFF"/>
<line x1="22.5" y1="15.75" x2="22.5" y2="29.75" stroke="#FFFFFF" stroke-width="2" stroke-miterlimit="3.999327" stroke-linecap="round"/>
<line x1="57.5" y1="15.75" x2="57.5" y2="29.75" stroke="#FFFFFF" stroke-width="2" stroke-miterlimit="3.999327" stroke-linecap="round"/>
<path d="M8.5,57.75C8.5,58.855 9.395,59.75 10.5,59.75C11.605,59.75 12.5,58.855 12.5,57.75L8.5,57.75ZM12.5,22.75C12.5,21.645 11.605,20.75 10.5,20.75C9.395,20.75 8.5,21.645 8.5,22.75L12.5,22.75ZM75.5,22.75C75.5,21.645 74.605,20.75 73.5,20.75C72.395,20.75 71.5,21.645 71.5,22.75L75.5,22.75ZM71.5,57.75C71.5,58.855 72.395,59.75 73.5,59.75C74.605,59.75 75.5,58.855 75.5,57.75L71.5,57.75ZM12.5,57.75L12.5,22.75L8.5,22.75L8.5,57.75L12.5,57.75ZM71.5,22.75L71.5,57.75L75.5,57.75L75.5,22.75L71.5,22.75Z" fill="#FFFFFF"/>
<path d="M60.649,13.658C59.566,13.444 58.514,14.149 58.299,15.233C58.085,16.316 58.79,17.368 59.874,17.582L60.649,13.658ZM71.881,19.981L73.161,18.444L71.881,19.981ZM72.014,25.406L73.328,26.913L72.014,25.406ZM60.609,29.81L61.008,31.77L60.609,29.81ZM42.051,31.5L42.05,29.5L42.051,31.5ZM23.473,29.827L23.077,31.787L23.473,29.827ZM12.017,25.433L10.711,26.947L12.017,25.433ZM12.087,20.008L10.799,18.478L12.087,20.008ZM24.046,17.598C25.129,17.383 25.833,16.33 25.617,15.247C25.401,14.163 24.349,13.46 23.265,13.675L24.046,17.598ZM59.874,17.582C65.254,18.646 68.897,20.099 70.601,21.518L73.161,18.444C70.641,16.346 66.146,14.745 60.649,13.658L59.874,17.582ZM70.601,21.518C71.427,22.206 71.497,22.629 71.5,22.739C71.502,22.834 71.468,23.228 70.7,23.898L73.328,26.913C74.585,25.817 75.541,24.378 75.499,22.641C75.456,20.92 74.447,19.515 73.161,18.444L70.601,21.518ZM70.7,23.898C69.09,25.302 65.542,26.766 60.211,27.85L61.008,31.77C66.447,30.664 70.886,29.043 73.328,26.913L70.7,23.898ZM60.211,27.85C54.981,28.914 48.618,29.497 42.05,29.5L42.052,33.5C48.833,33.497 55.467,32.897 61.008,31.77L60.211,27.85ZM42.05,29.5C35.482,29.503 29.112,28.925 23.869,27.866L23.077,31.787C28.63,32.909 35.271,33.503 42.052,33.5L42.05,29.5ZM23.869,27.866C18.526,26.787 14.955,25.326 13.323,23.918L10.711,26.947C13.172,29.07 17.624,30.685 23.077,31.787L23.869,27.866ZM13.323,23.918C12.541,23.243 12.499,22.842 12.5,22.744C12.501,22.639 12.562,22.222 13.375,21.538L10.799,18.478C9.52,19.554 8.523,20.968 8.5,22.693C8.478,24.427 9.447,25.858 10.711,26.947L13.323,23.918ZM13.375,21.538C15.057,20.122 18.677,18.667 24.046,17.598L23.265,13.675C17.782,14.766 13.301,16.372 10.799,18.478L13.375,21.538Z" fill="#FFFFFF"/>
<path d="M42,66.5L42,64.5L42,66.5ZM19.726,63.937L20.261,62.01L19.726,63.937ZM71.5,57.75C71.5,57.891 71.379,58.505 69.988,59.437C68.67,60.322 66.591,61.218 63.739,62.01L64.809,65.864C67.864,65.016 70.399,63.978 72.216,62.76C73.961,61.589 75.5,59.929 75.5,57.75L71.5,57.75ZM63.739,62.01C58.056,63.589 50.234,64.5 42,64.5L42,68.5C50.475,68.5 58.677,67.568 64.809,65.864L63.739,62.01ZM42,64.5C33.766,64.5 25.944,63.589 20.261,62.01L19.191,65.864C25.323,67.568 33.525,68.5 42,68.5L42,64.5ZM20.261,62.01C17.409,61.218 15.33,60.322 14.012,59.437C12.621,58.505 12.5,57.891 12.5,57.75L8.5,57.75C8.5,59.929 10.039,61.589 11.784,62.76C13.601,63.978 16.136,65.016 19.191,65.864L20.261,62.01Z" fill="#FFFFFF"/>
</svg>
