<svg width="40" height="40" viewBox="0 0 40 40" fill="none" xmlns="http://www.w3.org/2000/svg" xmlns:xlink="http://www.w3.org/1999/xlink">
<path d="M40,20C40,9.507 31.046,1 20,1C8.954,1 0,9.507 0,20C0,28.91 6.458,36.387 15.169,38.441L15.169,25.806L11.045,25.806L11.045,20L15.169,20L15.169,17.498C15.169,11.031 18.25,8.034 24.933,8.034C26.2,8.034 28.386,8.27 29.281,8.506L29.281,13.769C28.809,13.722 27.989,13.698 26.97,13.698C23.691,13.698 22.424,14.878 22.424,17.946L22.424,20L28.957,20L27.834,25.806L22.424,25.806L22.424,38.861C32.327,37.725 40.001,29.714 40.001,20L40,20Z" fill="#0866FF"/>
<path d="M27.835,25.806L28.957,20L22.424,20L22.424,17.946C22.424,14.878 23.691,13.698 26.971,13.698C27.989,13.698 28.809,13.722 29.281,13.769L29.281,8.506C28.387,8.269 26.2,8.034 24.933,8.034C18.25,8.034 15.169,11.031 15.169,17.498L15.169,20L11.045,20L11.045,25.806L15.169,25.806L15.169,38.44C16.716,38.805 18.335,39 20,39C20.82,39 21.629,38.952 22.423,38.861L22.423,25.806L27.834,25.806L27.835,25.806Z" fill="#FFFFFF"/>
</svg>
