<svg width="142" height="110" viewBox="0 0 142 110" fill="none" xmlns="http://www.w3.org/2000/svg" xmlns:xlink="http://www.w3.org/1999/xlink">
<path d="M19.25,0C8.619,0 0,8.619 0,19.25L0,77C0,85.687 5.754,93.03 13.658,95.425C16.054,103.33 23.397,109.083 32.083,109.083C40.465,109.083 47.595,103.727 50.238,96.25L90.929,96.25C93.571,103.727 100.702,109.083 109.083,109.083C117.519,109.083 124.687,103.657 127.288,96.105C135.125,95.049 141.167,88.334 141.167,80.208L141.167,49.194C141.167,46.418 140.266,43.716 138.6,41.494L125.767,24.383C123.343,21.152 119.539,19.25 115.5,19.25L102.667,19.25C102.667,8.619 94.048,0 83.417,0L19.25,0ZM103.667,32.083C103.114,32.083 102.667,32.531 102.667,33.083L102.667,56.75C102.667,57.302 103.114,57.75 103.667,57.75L127.333,57.75C127.886,57.75 128.333,57.302 128.333,56.75L128.333,49.528C128.333,49.311 128.263,49.101 128.133,48.928L115.8,32.483C115.611,32.232 115.315,32.083 115,32.083L103.667,32.083ZM38.5,89.833C38.5,93.377 35.627,96.25 32.083,96.25C28.54,96.25 25.667,93.377 25.667,89.833C25.667,86.29 28.54,83.417 32.083,83.417C35.627,83.417 38.5,86.29 38.5,89.833ZM109.083,96.25C112.627,96.25 115.5,93.377 115.5,89.833C115.5,86.29 112.627,83.417 109.083,83.417C105.54,83.417 102.667,86.29 102.667,89.833C102.667,93.377 105.54,96.25 109.083,96.25Z" clip-rule="evenodd" fill-rule="evenodd" fill="#35383F"/>
</svg>
