<svg width="38" height="44" viewBox="0 0 38 44" fill="none" xmlns="http://www.w3.org/2000/svg" xmlns:xlink="http://www.w3.org/1999/xlink">
<path d="M-0.04,13.342C-0.785,14.962 -0.785,16.805 -0.785,20.49L-0.785,32C-0.785,37.118 -0.785,39.677 0.805,41.267C2.327,42.789 4.736,42.854 9.428,42.857L9.428,29.285C9.428,26.682 11.539,24.571 14.142,24.571L22.285,24.571C24.889,24.571 26.999,26.682 26.999,29.285L26.999,42.857C31.693,42.854 34.103,42.789 35.625,41.267C37.215,39.677 37.215,37.118 37.215,32L37.215,20.49C37.215,16.805 37.215,14.962 36.47,13.342C35.725,11.722 34.326,10.523 31.528,8.125L28.813,5.798C23.756,1.463 21.227,-0.704 18.215,-0.704C15.203,-0.704 12.674,1.463 7.616,5.798L4.902,8.125C2.104,10.523 0.705,11.722 -0.04,13.342ZM22.999,42.857L22.999,29.285C22.999,28.891 22.68,28.571 22.285,28.571L14.142,28.571C13.748,28.571 13.428,28.891 13.428,29.285L13.428,42.857L22.999,42.857Z" clip-rule="evenodd" fill-rule="evenodd" fill="#222222"/>
</svg>
