<svg width="38" height="44" viewBox="0 0 38 44" fill="none" xmlns="http://www.w3.org/2000/svg" xmlns:xlink="http://www.w3.org/1999/xlink">
<path d="M0.745,13.949C0,15.569 0,17.411 0,21.097L0,32.606C0,37.724 0,40.283 1.59,41.873C3.112,43.395 5.521,43.46 10.213,43.463L10.213,29.892C10.213,27.288 12.324,25.178 14.927,25.178L23.07,25.178C25.674,25.178 27.785,27.288 27.785,29.892L27.785,43.463C32.478,43.46 34.888,43.395 36.41,41.873C38,40.283 38,37.724 38,32.606L38,21.097C38,17.411 38,15.569 37.255,13.949C36.51,12.329 35.111,11.13 32.313,8.731L29.599,6.405C24.541,2.07 22.012,-0.098 19,-0.098C15.988,-0.098 13.459,2.07 8.401,6.405L5.687,8.731C2.889,11.13 1.49,12.329 0.745,13.949ZM23.785,43.463L23.785,29.892C23.785,29.498 23.465,29.178 23.07,29.178L14.927,29.178C14.533,29.178 14.213,29.498 14.213,29.892L14.213,43.463L23.785,43.463Z" clip-rule="evenodd" fill-rule="evenodd" fill="#222222"/>
</svg>
