<svg width="126" height="126" viewBox="0 0 126 126" fill="none" xmlns="http://www.w3.org/2000/svg" xmlns:xlink="http://www.w3.org/1999/xlink">
<path d="M91.707,1.657C96.377,2.648 97.408,8.334 94.032,11.709L83.055,22.687C77.653,28.089 77.653,36.848 83.055,42.25C88.457,47.652 97.216,47.652 102.618,42.25L113.596,31.272C116.971,27.897 122.657,28.928 123.648,33.597C126.466,46.88 122.717,61.278 112.4,71.595C99.623,84.372 80.587,87.076 65.161,79.707L24.365,120.503C18.963,125.905 10.204,125.905 4.802,120.503C-0.601,115.101 -0.601,106.342 4.802,100.94L45.598,60.144C38.229,44.718 40.933,25.682 53.71,12.905C64.027,2.588 78.424,-1.161 91.707,1.657Z" fill="#35383F"/>
</svg>
