<svg width="34" height="20" viewBox="0 0 34 20" fill="none" xmlns="http://www.w3.org/2000/svg" xmlns:xlink="http://www.w3.org/1999/xlink">
<path d="M2.73,1.316C2.352,0.913 1.719,0.893 1.316,1.27C0.913,1.648 0.893,2.281 1.27,2.684L2.73,1.316ZM17,18L16.27,18.684C16.46,18.886 16.724,19 17,19C17.276,19 17.54,18.886 17.73,18.684L17,18ZM32.73,2.684C33.107,2.281 33.087,1.648 32.684,1.27C32.281,0.893 31.648,0.913 31.27,1.316L32.73,2.684ZM1.27,2.684L16.27,18.684L17.73,17.316L2.73,1.316L1.27,2.684ZM17.73,18.684L32.73,2.684L31.27,1.316L16.27,17.316L17.73,18.684Z" fill="#000000"/>
</svg>
