<svg width="40" height="12" viewBox="0 0 40 12" fill="none" xmlns="http://www.w3.org/2000/svg" xmlns:xlink="http://www.w3.org/1999/xlink">
<path d="M0.5,6C0.5,4.541 1.079,3.142 2.111,2.111C3.142,1.079 4.541,0.5 6,0.5C7.459,0.5 8.858,1.079 9.889,2.111C10.921,3.142 11.5,4.541 11.5,6C11.5,7.459 10.921,8.858 9.889,9.889C8.858,10.921 7.459,11.5 6,11.5C4.541,11.5 3.142,10.921 2.111,9.889C1.079,8.858 0.5,7.459 0.5,6ZM6,3.5C5.337,3.5 4.701,3.763 4.232,4.232C3.763,4.701 3.5,5.337 3.5,6C3.5,6.663 3.763,7.299 4.232,7.768C4.701,8.237 5.337,8.5 6,8.5C6.663,8.5 7.299,8.237 7.768,7.768C8.237,7.299 8.5,6.663 8.5,6C8.5,5.337 8.237,4.701 7.768,4.232C7.299,3.763 6.663,3.5 6,3.5ZM14.5,6C14.5,4.541 15.079,3.142 16.111,2.111C17.142,1.079 18.541,0.5 20,0.5C21.459,0.5 22.858,1.079 23.889,2.111C24.921,3.142 25.5,4.541 25.5,6C25.5,7.459 24.921,8.858 23.889,9.889C22.858,10.921 21.459,11.5 20,11.5C18.541,11.5 17.142,10.921 16.111,9.889C15.079,8.858 14.5,7.459 14.5,6ZM20,3.5C19.337,3.5 18.701,3.763 18.232,4.232C17.763,4.701 17.5,5.337 17.5,6C17.5,6.663 17.763,7.299 18.232,7.768C18.701,8.237 19.337,8.5 20,8.5C20.663,8.5 21.299,8.237 21.768,7.768C22.237,7.299 22.5,6.663 22.5,6C22.5,5.337 22.237,4.701 21.768,4.232C21.299,3.763 20.663,3.5 20,3.5ZM34,0.5C32.541,0.5 31.142,1.079 30.111,2.111C29.079,3.142 28.5,4.541 28.5,6C28.5,7.459 29.079,8.858 30.111,9.889C31.142,10.921 32.541,11.5 34,11.5C35.459,11.5 36.858,10.921 37.889,9.889C38.921,8.858 39.5,7.459 39.5,6C39.5,4.541 38.921,3.142 37.889,2.111C36.858,1.079 35.459,0.5 34,0.5ZM31.5,6C31.5,5.672 31.565,5.347 31.69,5.043C31.816,4.74 32,4.464 32.232,4.232C32.464,4 32.74,3.816 33.043,3.69C33.347,3.565 33.672,3.5 34,3.5C34.328,3.5 34.653,3.565 34.957,3.69C35.26,3.816 35.536,4 35.768,4.232C36,4.464 36.184,4.74 36.31,5.043C36.435,5.347 36.5,5.672 36.5,6C36.5,6.663 36.237,7.299 35.768,7.768C35.299,8.237 34.663,8.5 34,8.5C33.337,8.5 32.701,8.237 32.232,7.768C31.763,7.299 31.5,6.663 31.5,6Z" clip-rule="evenodd" fill-rule="evenodd" fill="#000000"/>
</svg>
