<svg width="28" height="30" viewBox="0 0 28 30" fill="none" xmlns="http://www.w3.org/2000/svg" xmlns:xlink="http://www.w3.org/1999/xlink">
<path d="M18.239,19.654L26.291,27.708C26.384,27.801 26.495,27.875 26.616,27.925C26.738,27.975 26.868,28.001 26.999,28.001C27.131,28.001 27.261,27.975 27.382,27.925C27.504,27.875 27.614,27.801 27.707,27.708C27.8,27.615 27.874,27.505 27.924,27.383C27.975,27.262 28.001,27.132 28.001,27C28.001,26.869 27.975,26.738 27.924,26.617C27.874,26.495 27.8,26.385 27.707,26.292L1.707,0.292C1.614,0.199 1.504,0.125 1.382,0.075C1.261,0.025 1.131,-0.001 0.999,-0.001C0.868,-0.001 0.738,0.025 0.616,0.075C0.495,0.125 0.384,0.199 0.291,0.292C0.198,0.385 0.125,0.495 0.074,0.617C0.024,0.738 -0.002,0.869 -0.002,1C-0.002,1.132 0.024,1.262 0.074,1.383C0.125,1.505 0.198,1.615 0.291,1.708L6.751,8.168C5.872,8.791 5.081,9.53 4.399,10.364C3.434,11.548 2.679,12.889 2.165,14.328C2.123,14.45 2.071,14.618 2.071,14.618L2.035,14.742C2.035,14.742 1.883,15.736 2.745,15.964C3.002,16.032 3.274,15.995 3.503,15.862C3.732,15.729 3.899,15.51 3.967,15.254L3.969,15.248L3.985,15.198L4.055,14.98C4.491,13.765 5.13,12.633 5.945,11.632C6.587,10.846 7.345,10.162 8.193,9.604L11.349,12.76C10.712,13.159 10.174,13.697 9.773,14.333C9.373,14.969 9.121,15.687 9.036,16.434C8.952,17.181 9.037,17.937 9.285,18.647C9.533,19.356 9.938,20.001 10.469,20.532C11.001,21.064 11.645,21.469 12.355,21.717C13.064,21.965 13.82,22.05 14.567,21.965C15.314,21.88 16.032,21.628 16.668,21.228C17.305,20.828 17.842,20.289 18.241,19.652M10.641,6.396L12.349,8.104C12.868,8.035 13.418,8 13.999,8C18.087,8 20.571,9.824 22.055,11.634C22.87,12.635 23.509,13.767 23.945,14.982C23.979,15.079 24.002,15.152 24.015,15.2L24.031,15.25L24.031,15.256L24.033,15.258C24.107,15.508 24.276,15.719 24.503,15.846C24.73,15.973 24.998,16.007 25.249,15.94C25.501,15.873 25.716,15.711 25.85,15.487C25.984,15.264 26.025,14.997 25.965,14.744L25.965,14.738L25.963,14.73L25.955,14.704C25.921,14.577 25.881,14.453 25.835,14.33C25.322,12.891 24.566,11.55 23.601,10.366C21.809,8.178 18.791,6 14.003,6C12.767,6 11.649,6.142 10.641,6.396Z" fill="#000000"/>
</svg>
