<svg width="24" height="18" viewBox="0 0 24 18" fill="none" xmlns="http://www.w3.org/2000/svg" xmlns:xlink="http://www.w3.org/1999/xlink">
<path d="M1.968,10.25L1.968,10.256C1.934,10.383 1.876,10.502 1.796,10.607C1.716,10.711 1.617,10.799 1.503,10.865C1.389,10.931 1.264,10.974 1.133,10.991C1.003,11.008 0.871,11 0.744,10.966C-0.118,10.738 0.034,9.744 0.034,9.744L0.07,9.62C0.07,9.62 0.122,9.452 0.164,9.33C0.677,7.891 1.433,6.55 2.398,5.366C4.192,3.178 7.21,1 12,1C16.79,1 19.808,3.178 21.604,5.366C22.569,6.55 23.324,7.891 23.838,9.33C23.881,9.454 23.921,9.578 23.958,9.704L23.964,9.73L23.964,9.738L23.966,9.742C24.029,9.997 23.99,10.266 23.857,10.492C23.724,10.718 23.507,10.882 23.253,10.95C23,11.018 22.73,10.983 22.502,10.854C22.274,10.724 22.106,10.51 22.034,10.258L22.032,10.25L22.016,10.2L21.946,9.982C21.51,8.767 20.871,7.635 20.056,6.634C18.572,4.824 16.09,3 12,3C7.91,3 5.43,4.824 3.944,6.634C3.129,7.635 2.49,8.767 2.054,9.982L1.984,10.2L1.968,10.25ZM7,12C7,10.674 7.527,9.402 8.464,8.464C9.402,7.527 10.674,7 12,7C13.326,7 14.598,7.527 15.535,8.464C16.473,9.402 17,10.674 17,12C17,13.326 16.473,14.598 15.535,15.536C14.598,16.473 13.326,17 12,17C10.674,17 9.402,16.473 8.464,15.536C7.527,14.598 7,13.326 7,12Z" fill="#000000"/>
</svg>
