<svg width="16" height="16" viewBox="0 0 16 16" fill="none" xmlns="http://www.w3.org/2000/svg" xmlns:xlink="http://www.w3.org/1999/xlink">
<path d="M3.664,6.891C3.051,5.972 1.81,5.723 0.891,6.336C-0.028,6.949 -0.277,8.19 0.336,9.109L3.664,6.891ZM6,14L4.336,15.109C4.707,15.666 5.331,16 6,16C6.669,16 7.293,15.666 7.664,15.109L6,14ZM15.664,3.109C16.277,2.19 16.028,0.949 15.109,0.336C14.19,-0.277 12.949,-0.028 12.336,0.891L15.664,3.109ZM0.336,9.109L4.336,15.109L7.664,12.891L3.664,6.891L0.336,9.109ZM7.664,15.109L15.664,3.109L12.336,0.891L4.336,12.891L7.664,15.109Z" fill="#FFFFFF"/>
</svg>
