<svg width="20" height="34" viewBox="0 0 20 34" fill="none" xmlns="http://www.w3.org/2000/svg" xmlns:xlink="http://www.w3.org/1999/xlink">
<path d="M14.836,32.914C15.617,33.695 16.883,33.695 17.664,32.914C18.445,32.133 18.445,30.867 17.664,30.086L14.836,32.914ZM1.75,17L0.336,15.586C-0.445,16.367 -0.445,17.633 0.336,18.414L1.75,17ZM17.664,3.914C18.445,3.133 18.445,1.867 17.664,1.086C16.883,0.305 15.617,0.305 14.836,1.086L17.664,3.914ZM17.664,30.086L3.164,15.586L0.336,18.414L14.836,32.914L17.664,30.086ZM3.164,18.414L17.664,3.914L14.836,1.086L0.336,15.586L3.164,18.414Z" fill="#25282B"/>
</svg>
