<svg width="32" height="32" viewBox="0 0 32 32" fill="none" xmlns="http://www.w3.org/2000/svg" xmlns:xlink="http://www.w3.org/1999/xlink">
<path d="M15.451,0C6.629,0 -0.549,7.177 -0.549,16C-0.549,24.823 6.629,32 15.451,32C24.274,32 31.451,24.823 31.451,16C31.451,7.177 24.274,0 15.451,0ZM15.451,30.118C7.666,30.118 1.334,23.785 1.334,16C1.334,8.215 7.666,1.882 15.451,1.882C23.237,1.882 29.569,8.215 29.569,16C29.569,23.785 23.237,30.118 15.451,30.118ZM25.492,16.941L25.492,18.824L14.198,18.824L14.198,9.412L16.08,9.412L16.08,16.941L25.492,16.941Z" fill="#CBE1FF"/>
</svg>
