<svg width="40" height="44" viewBox="0 0 40 44" fill="none" xmlns="http://www.w3.org/2000/svg" xmlns:xlink="http://www.w3.org/1999/xlink">
<path d="M20,18.182L20,26.314L30.764,26.314C30.291,28.93 28.873,31.144 26.745,32.634L33.236,37.922C37.018,34.256 39.2,28.873 39.2,22.477C39.2,20.988 39.073,19.556 38.836,18.182L20,18.182Z" fill="#4285F4"/>
<path d="M8.79,25.997L7.326,27.174L2.145,31.412C5.435,38.265 12.18,43 19.999,43C25.398,43 29.926,41.129 33.235,37.922L26.744,32.634C24.962,33.894 22.689,34.657 19.999,34.657C14.799,34.657 10.38,30.973 8.799,26.009L8.79,25.997Z" fill="#34A853"/>
<path d="M2.145,12.588C0.782,15.413 0,18.602 0,22C0,25.398 0.782,28.586 2.145,31.412C2.145,31.43 8.8,25.99 8.8,25.99C8.4,24.73 8.164,23.393 8.164,22C8.164,20.606 8.4,19.27 8.8,18.01L2.145,12.588Z" fill="#FBBC05"/>
<path d="M19.999,9.362C22.944,9.362 25.563,10.431 27.654,12.493L33.381,6.479C29.908,3.081 25.399,1 19.999,1C12.181,1 5.435,5.715 2.145,12.588L8.799,18.01C10.381,13.046 14.799,9.362 19.999,9.362Z" fill="#EA4335"/>
</svg>
