<svg width="24" height="16" viewBox="0 0 24 16" fill="none" xmlns="http://www.w3.org/2000/svg" xmlns:xlink="http://www.w3.org/1999/xlink">
<path d="M1.972,9.25L1.972,9.256C1.938,9.383 1.88,9.502 1.8,9.607C1.72,9.711 1.621,9.799 1.507,9.865C1.393,9.931 1.268,9.974 1.137,9.991C1.007,10.008 0.875,10 0.748,9.966C-0.114,9.738 0.038,8.744 0.038,8.744L0.074,8.62C0.074,8.62 0.126,8.452 0.168,8.33C0.681,6.891 1.436,5.55 2.402,4.366C4.196,2.178 7.214,0 12.004,0C16.794,0 19.812,2.178 21.608,4.366C22.573,5.55 23.328,6.891 23.842,8.33C23.885,8.454 23.925,8.578 23.962,8.704L23.968,8.73L23.968,8.738L23.97,8.742C24.033,8.997 23.994,9.266 23.861,9.492C23.728,9.718 23.511,9.882 23.257,9.95C23.004,10.018 22.734,9.983 22.506,9.854C22.278,9.724 22.11,9.51 22.038,9.258L22.036,9.25L22.02,9.2L21.95,8.982C21.514,7.767 20.875,6.635 20.06,5.634C18.576,3.824 16.094,2 12.004,2C7.914,2 5.434,3.824 3.948,5.634C3.133,6.635 2.494,7.767 2.058,8.982L1.988,9.2L1.972,9.25ZM7.004,11C7.004,9.674 7.53,8.402 8.468,7.464C9.406,6.527 10.678,6 12.004,6C13.33,6 14.602,6.527 15.539,7.464C16.477,8.402 17.004,9.674 17.004,11C17.004,12.326 16.477,13.598 15.539,14.536C14.602,15.473 13.33,16 12.004,16C10.678,16 9.406,15.473 8.468,14.536C7.53,13.598 7.004,12.326 7.004,11Z" fill="#000000"/>
</svg>
